<svg id="Layer_1" data-name="Layer 1" xmlns="http://www.w3.org/2000/svg" viewBox="0 0 972.67 616.63"> <defs><style>.cls-1,.cls-25,.cls-32,.cls-44,.cls-49,.cls-8,.cls-9{fill:#fff}.cls-1,.cls-16{font-family:'Red Hat Display',sans-serif;font-weight:500}.cls-2{letter-spacing:0.01em}.cls-3{letter-spacing:0.02em}.cls-4{letter-spacing:0em}.cls-5{letter-spacing:0.02em}.cls-6{letter-spacing:0.03em}.cls-7{letter-spacing:0.02em}.cls-23,.cls-8,.cls-9{opacity:0.8}.cls-8,.cls-9{font-size:16px}.cls-8{font-family:NotoSansCJKkr-Bold-KSCpc-EUC-H,Noto Sans CJK KR;letter-spacing:-0.06em}.cls-34,.cls-41,.cls-42,.cls-43,.cls-45,.cls-47,.cls-48,.cls-9{font-family:'Red Hat Display',sans-serif}.cls-9{letter-spacing:-0.06em}.cls-10{letter-spacing:-0.07em}.cls-11,.cls-34,.cls-45{fill:#adc793;opacity:0.9}.cls-12{font-size:24px}.cls-12,.cls-16,.cls-26{fill:#003426}.cls-12,.cls-26,.cls-32,.cls-44,.cls-49{font-family:'Red Hat Display',sans-serif;font-weight:700}.cls-12,.cls-21{letter-spacing:-0.02em}.cls-13{letter-spacing:-0.02em}.cls-14{letter-spacing:-0.04em}.cls-15{letter-spacing:-0.02em}.cls-16,.cls-32,.cls-44,.cls-49{font-size:18px}.cls-16,.cls-33,.cls-44{letter-spacing:-0.02em}.cls-17{letter-spacing:-0.03em}.cls-18{letter-spacing:-0.02em}.cls-19{letter-spacing:-0.04em}.cls-20{letter-spacing:-0.02em}.cls-22{letter-spacing:-0.01em}.cls-24,.cls-30,.cls-31{fill:none;stroke:#fff}.cls-24,.cls-30{stroke-linecap:round}.cls-24{stroke-linejoin:round;stroke-dasharray:1 3.99}.cls-26{font-size:50px;letter-spacing:-0.02em}.cls-27{letter-spacing:-0.02em}.cls-28{letter-spacing:-0.03em}.cls-29{letter-spacing:-0.04em}.cls-30,.cls-31{stroke-miterlimit:10}.cls-30{stroke-dasharray:1 4;opacity:0.5}.cls-32{letter-spacing:-0.04em}.cls-34,.cls-45{font-size:15px}.cls-34{letter-spacing:-0.04em}.cls-35,.cls-45{letter-spacing:-0.02em}.cls-36{letter-spacing:-0.03em}.cls-37{letter-spacing:-0.01em}.cls-38{letter-spacing:-0.02em}.cls-39{letter-spacing:-0.02em}.cls-40{font-size:14px;fill:#ccc;font-family:NotoSansCJKkr-DemiLight-KSCpc-EUC-H,Noto Sans CJK KR;letter-spacing:-0.04em}.cls-41{letter-spacing:-0.06em}.cls-42{letter-spacing:-0.06em}.cls-43{letter-spacing:-0.04em}.cls-46{letter-spacing:-0.02em}.cls-47{letter-spacing:-0.06em}.cls-48{letter-spacing:-0.06em}.cls-49{letter-spacing:-0.03em}.cls-50{letter-spacing:-0.02em}.cls-51{letter-spacing:-0.02em}</style></defs><title>graph</title> <text class="cls-1" transform="translate(34.88 33.15)"> <tspan class="cls-2">D</tspan> <tspan x="11" y="0">a</tspan> <tspan class="cls-3" x="19" y="0">ta</tspan> <tspan class="cls-4" x="40" y="0">C</tspan> <tspan class="cls-3" x="51" y="0">oll</tspan> <tspan class="cls-5" x="68" y="0">e</tspan> <tspan class="cls-6" x="77" y="0">c</tspan> <tspan class="cls-3" x="86" y="0">ting</tspan> <tspan class="cls-7"> <tspan x="0" y="70"></tspan> </tspan> </text> <text class="cls-8" transform="translate(36.76 63.76)">서버연동형 건강측정 장비를 활용한 데이터 수집</text> <text class="cls-9" transform="translate(37.05 86.4)">20 <tspan class="cls-10" x="17.33" y="0">0</tspan> <tspan x="26.82" y="0">9 ~ 2</tspan> <tspan class="cls-10" x="56.61" y="0">0</tspan> <tspan x="66.1" y="0">18</tspan> </text> <text class="cls-1" transform="translate(751.88 33.15)"> <tspan class="cls-2">D</tspan> <tspan x="11" y="0">a</tspan> <tspan class="cls-3" x="20" y="0">ta Mining</tspan> <tspan class="cls-7"> <tspan x="0" y="70"></tspan> </tspan> </text> <text class="cls-8" transform="translate(753.76 63.76)">데이터를 활용한 사업모델 개발</text> <text class="cls-9" transform="translate(754.05 86.4)">2 <tspan class="cls-10" x="7.71" y="0">0</tspan> <tspan x="17.2" y="0">19~</tspan> </text> <circle class="cls-11" cx="185.73" cy="246.63" r="100" /> <text class="cls-12" transform="translate(135.19 240.79)">u-H <tspan class="cls-13" x="41.54" y="0">e</tspan> <tspan x="55.08" y="0">alth</tspan> <tspan x="13.27" y="24">D</tspan> <tspan class="cls-14" x="30.5" y="24">e</tspan> <tspan class="cls-15" x="43.61" y="24">vi</tspan> <tspan class="cls-14" x="62.42" y="24">c</tspan> <tspan x="74.23" y="24">e</tspan> </text> <text class="cls-16" transform="translate(163.83 293.74)">20 <tspan class="cls-17" x="21.35" y="0">0</tspan> <tspan x="32.96" y="0">9</tspan> </text> <circle class="cls-11" cx="872.67" cy="246.63" r="100" /> <text class="cls-12" transform="translate(825.31 240.79)">Analysis <tspan class="cls-14"> <tspan x="-3.4" y="24">C</tspan> <tspan class="cls-18" x="12.88" y="24">o</tspan> <tspan class="cls-19" x="27.18" y="24">n</tspan> <tspan class="cls-20" x="40.45" y="24">t</tspan> <tspan class="cls-21" x="50.03" y="24">e</tspan> <tspan x="63.61" y="24">n</tspan> <tspan class="cls-22" x="76.88" y="24">t</tspan> <tspan class="cls-18" x="86.82" y="24">s</tspan> </tspan> </text> <text class="cls-16" transform="translate(853.99 293.74)">2 <tspan class="cls-17" x="9.63" y="0">0</tspan> <tspan x="21.24" y="0">19</tspan> </text> <g class="cls-23"> <circle class="cls-24" cx="529.17" cy="246.13" r="150" /> </g> <circle class="cls-25" cx="528.75" cy="248.63" r="127.5" /> <text class="cls-26" transform="translate(448.75 246.32)">H <tspan class="cls-27" x="35.95" y="0">e</tspan> <tspan x="64.15" y="0">alth</tspan> <tspan class="cls-28"> <tspan x="25.95" y="50">D</tspan> <tspan class="cls-29" x="61.35" y="50">a</tspan> <tspan class="cls-18" x="87.1" y="50">ta</tspan> </tspan> </text> <rect class="cls-25" x="285.67" y="246.63" width="79" height="1" /> <polygon class="cls-25" points="362.67 243.63 362.67 250.63 367.67 247.63 367.67 246.63 362.67 243.63" /> <rect class="cls-25" x="678.67" y="246.63" width="79" height="1" /> <polygon class="cls-25" points="756.67 243.63 756.67 250.63 761.67 247.63 761.67 246.63 756.67 243.63" /> <polyline class="cls-30" points="90.17 436.13 90.17 396.13 280.17 397.13 280.17 437.13" /> <line class="cls-30" x1="185.67" y1="346.63" x2="185.67" y2="397.13" /> <line class="cls-30" x1="873.17" y1="346.13" x2="873.17" y2="436.13" /> <circle class="cls-31" cx="90.5" cy="526.13" r="90" /> <text class="cls-32" transform="translate(66 503.53)">Z <tspan class="cls-33" x="10.35" y="0">ONE</tspan> </text> <text class="cls-34" transform="translate(31.84 521.44)">C <tspan class="cls-35" x="10.23" y="0">om</tspan> <tspan class="cls-36" x="31.38" y="0">m</tspan> <tspan class="cls-35" x="43.89" y="0">uni</tspan> <tspan class="cls-37" x="62.46" y="0">t</tspan> <tspan class="cls-35" x="67.78" y="0">y</tspan> <tspan class="cls-38" x="78.06" y="0">b</tspan> <tspan class="cls-35" x="86.68" y="0">a</tspan> <tspan class="cls-38" x="94.12" y="0">s</tspan> <tspan class="cls-39" x="100.59" y="0">e</tspan> <tspan class="cls-18" x="108.76" y="0">d</tspan> </text> <text class="cls-40" transform="translate(20.23 546.77)">보건소, 주민센터, 서울시, <tspan x="20.14" y="18">아파트, 사업장</tspan> <tspan class="cls-41" x="102.4" y="18">e</tspan> <tspan class="cls-42" x="109.46" y="18">t</tspan> <tspan class="cls-43" x="113.78" y="18">c</tspan> </text> <circle class="cls-31" cx="280.5" cy="526.13" r="90" /> <text class="cls-44" transform="translate(251.88 503.53)"> <tspan xml:space="preserve">HOME</tspan> </text> <text class="cls-45" transform="translate(229.88 521.44)">Individual <tspan class="cls-46" x="61.99" y="0">b</tspan> <tspan x="70.62" y="0">a</tspan> <tspan class="cls-38" x="78.06" y="0">s</tspan> <tspan class="cls-39" x="84.52" y="0">e</tspan> <tspan class="cls-18" x="92.7" y="0">d</tspan> </text> <text class="cls-40" transform="translate(231.6 546.77)">개인, 가족, 소그룹 <tspan x="13.98" y="18">커뮤니티</tspan> <tspan class="cls-47" x="65.82" y="18">e</tspan> <tspan class="cls-48" x="72.88" y="18">t</tspan> <tspan class="cls-43" x="77.2" y="18">c</tspan> </text> <circle class="cls-31" cx="872.5" cy="526.13" r="90" /> <text class="cls-49" transform="translate(836.35 514.53)">B <tspan class="cls-33" x="11.9" y="0">usin</tspan> <tspan class="cls-50" x="45.04" y="0">e</tspan> <tspan class="cls-51" x="55.31" y="0">s</tspan> <tspan class="cls-33" x="63.83" y="0">s</tspan> </text> <text class="cls-40" transform="translate(822.42 538.77)">의원/병원, 제약사, <tspan x="21.32" y="18">보험사</tspan> <tspan class="cls-47" x="60.84" y="18">e</tspan> <tspan class="cls-48" x="67.9" y="18">t</tspan> <tspan class="cls-43" x="72.23" y="18">c</tspan> </text> </svg>